<mxfile host="app.diagrams.net" agent="Mozilla/5.0 (Windows NT 10.0; Win64; x64) AppleWebKit/537.36 (KHTML, like Gecko) Chrome/131.0.0.0 Safari/537.36" version="25.0.3">
  <diagram id="FvgOvNhc0AL6IE3lfwKK" name="Страница 1">
    <mxGraphModel dx="1902" dy="471" grid="1" gridSize="10" guides="1" tooltips="1" connect="1" arrows="1" fold="1" page="1" pageScale="1" pageWidth="827" pageHeight="1169" math="0" shadow="0">
      <root>
        <mxCell id="0" />
        <mxCell id="1" parent="0" />
        <mxCell id="2zfGwBT45NxF4zeaI-SW-1" value="Клиент" style="shape=umlActor;verticalLabelPosition=bottom;verticalAlign=top;html=1;" parent="1" vertex="1">
          <mxGeometry x="615" y="180" width="30" height="60" as="geometry" />
        </mxCell>
        <mxCell id="2zfGwBT45NxF4zeaI-SW-17" value="заполнить заявку" style="ellipse;whiteSpace=wrap;html=1;" parent="1" vertex="1">
          <mxGeometry x="685" y="180" width="120" height="40" as="geometry" />
        </mxCell>
        <mxCell id="2zfGwBT45NxF4zeaI-SW-19" value="указать количество&lt;br&gt;мест в номере" style="ellipse;whiteSpace=wrap;html=1;" parent="1" vertex="1">
          <mxGeometry x="675" y="80" width="140" height="60" as="geometry" />
        </mxCell>
        <mxCell id="2zfGwBT45NxF4zeaI-SW-21" value="указать&lt;br&gt;класс апартаментов &lt;br&gt;" style="ellipse;whiteSpace=wrap;html=1;" parent="1" vertex="1">
          <mxGeometry x="855" y="175" width="120" height="50" as="geometry" />
        </mxCell>
        <mxCell id="2zfGwBT45NxF4zeaI-SW-23" value="указать&lt;br&gt;время пребывания&lt;br&gt;" style="ellipse;whiteSpace=wrap;html=1;" parent="1" vertex="1">
          <mxGeometry x="685" y="250" width="120" height="50" as="geometry" />
        </mxCell>
        <mxCell id="2zfGwBT45NxF4zeaI-SW-35" value="Extends" style="endArrow=block;endSize=16;endFill=0;html=1;rounded=0;entryX=0.5;entryY=0;entryDx=0;entryDy=0;exitX=0.5;exitY=1;exitDx=0;exitDy=0;fontSize=7;verticalAlign=middle;" parent="1" source="2zfGwBT45NxF4zeaI-SW-19" target="2zfGwBT45NxF4zeaI-SW-17" edge="1">
          <mxGeometry y="10" width="160" relative="1" as="geometry">
            <mxPoint x="575" y="160" as="sourcePoint" />
            <mxPoint x="735" y="160" as="targetPoint" />
            <mxPoint as="offset" />
          </mxGeometry>
        </mxCell>
        <mxCell id="2zfGwBT45NxF4zeaI-SW-38" value="Extends" style="endArrow=block;endSize=16;endFill=0;html=1;rounded=0;entryX=0.5;entryY=1;entryDx=0;entryDy=0;exitX=0.5;exitY=0;exitDx=0;exitDy=0;fontSize=7;verticalAlign=top;" parent="1" source="2zfGwBT45NxF4zeaI-SW-23" target="2zfGwBT45NxF4zeaI-SW-17" edge="1">
          <mxGeometry width="160" relative="1" as="geometry">
            <mxPoint x="489" y="280" as="sourcePoint" />
            <mxPoint x="649" y="280" as="targetPoint" />
          </mxGeometry>
        </mxCell>
        <mxCell id="2zfGwBT45NxF4zeaI-SW-39" value="Extends" style="endArrow=block;endSize=16;endFill=0;html=1;rounded=0;entryX=1;entryY=0.5;entryDx=0;entryDy=0;fontSize=7;verticalAlign=middle;" parent="1" target="2zfGwBT45NxF4zeaI-SW-17" edge="1">
          <mxGeometry width="160" relative="1" as="geometry">
            <mxPoint x="855" y="200" as="sourcePoint" />
            <mxPoint x="785" y="150" as="targetPoint" />
          </mxGeometry>
        </mxCell>
        <mxCell id="2zfGwBT45NxF4zeaI-SW-49" value="include" style="edgeStyle=orthogonalEdgeStyle;rounded=0;orthogonalLoop=1;jettySize=auto;html=1;fontSize=7;" parent="1" source="2zfGwBT45NxF4zeaI-SW-42" target="2zfGwBT45NxF4zeaI-SW-48" edge="1">
          <mxGeometry relative="1" as="geometry" />
        </mxCell>
        <mxCell id="2zfGwBT45NxF4zeaI-SW-42" value="&lt;font style=&quot;font-size: 12px;&quot;&gt;Просмотреть поступившую заявку&lt;/font&gt;" style="ellipse;whiteSpace=wrap;html=1;fontSize=7;" parent="1" vertex="1">
          <mxGeometry x="395" y="165" width="110" height="70" as="geometry" />
        </mxCell>
        <mxCell id="2zfGwBT45NxF4zeaI-SW-45" value="" style="line;strokeWidth=1;fillColor=none;align=left;verticalAlign=middle;spacingTop=-1;spacingLeft=3;spacingRight=3;rotatable=0;labelPosition=right;points=[];portConstraint=eastwest;strokeColor=inherit;fontSize=7;" parent="1" vertex="1">
          <mxGeometry x="505" y="177.5" width="30" height="45" as="geometry" />
        </mxCell>
        <mxCell id="2zfGwBT45NxF4zeaI-SW-48" value="&lt;font style=&quot;font-size: 12px;&quot;&gt;выделить наиболее подходящий из&lt;br&gt;доступных номеров&lt;/font&gt;" style="ellipse;whiteSpace=wrap;html=1;fontSize=7;" parent="1" vertex="1">
          <mxGeometry x="380" y="270" width="140" height="70" as="geometry" />
        </mxCell>
        <mxCell id="2zfGwBT45NxF4zeaI-SW-50" value="" style="line;strokeWidth=1;fillColor=none;align=left;verticalAlign=middle;spacingTop=-1;spacingLeft=3;spacingRight=3;rotatable=0;labelPosition=right;points=[];portConstraint=eastwest;strokeColor=inherit;fontSize=7;" parent="1" vertex="1">
          <mxGeometry x="645" y="196" width="40" height="8" as="geometry" />
        </mxCell>
        <mxCell id="2zfGwBT45NxF4zeaI-SW-57" value="Админ" style="shape=umlActor;verticalLabelPosition=bottom;verticalAlign=top;html=1;" parent="1" vertex="1">
          <mxGeometry x="535" y="180" width="30" height="60" as="geometry" />
        </mxCell>
        <mxCell id="2zfGwBT45NxF4zeaI-SW-59" value="Сервер&lt;br&gt;" style="shape=umlActor;verticalLabelPosition=bottom;verticalAlign=bottom;html=1;horizontal=0;align=center;fontStyle=2" parent="1" vertex="1">
          <mxGeometry x="575" y="90" width="30" height="60" as="geometry" />
        </mxCell>
        <mxCell id="2zfGwBT45NxF4zeaI-SW-73" value="Выставить счет" style="ellipse;whiteSpace=wrap;html=1;" parent="1" vertex="1">
          <mxGeometry x="435" y="90" width="120" height="40" as="geometry" />
        </mxCell>
        <mxCell id="2zfGwBT45NxF4zeaI-SW-74" value="" style="endArrow=none;html=1;rounded=0;fontSize=7;exitX=1;exitY=0.5;exitDx=0;exitDy=0;entryX=0;entryY=0.3333333333333333;entryDx=0;entryDy=0;entryPerimeter=0;" parent="1" source="2zfGwBT45NxF4zeaI-SW-73" target="2zfGwBT45NxF4zeaI-SW-59" edge="1">
          <mxGeometry relative="1" as="geometry">
            <mxPoint x="655" y="200" as="sourcePoint" />
            <mxPoint x="815" y="200" as="targetPoint" />
          </mxGeometry>
        </mxCell>
        <mxCell id="2zfGwBT45NxF4zeaI-SW-81" value="&lt;p style=&quot;margin:0px;margin-top:4px;text-align:center;&quot;&gt;&lt;b&gt;admin&lt;/b&gt;&lt;/p&gt;&lt;hr size=&quot;1&quot;&gt;&lt;p style=&quot;margin:0px;margin-left:4px;&quot;&gt;+номер:int&lt;/p&gt;&lt;hr size=&quot;1&quot;&gt;&lt;p style=&quot;margin:0px;margin-left:4px;&quot;&gt;+ information(Заявка:p):номер&lt;/p&gt;" style="verticalAlign=top;align=left;overflow=fill;fontSize=12;fontFamily=Helvetica;html=1;" parent="1" vertex="1">
          <mxGeometry x="770" y="711" width="170" height="90" as="geometry" />
        </mxCell>
        <mxCell id="2zfGwBT45NxF4zeaI-SW-82" value="&lt;p style=&quot;margin:0px;margin-top:4px;text-align:center;&quot;&gt;&lt;b&gt;server&lt;/b&gt;&lt;/p&gt;&lt;hr size=&quot;1&quot;&gt;&lt;p style=&quot;margin:0px;margin-left:4px;&quot;&gt;+ price:int&lt;/p&gt;&lt;hr size=&quot;1&quot;&gt;&lt;p style=&quot;margin:0px;margin-left:4px;&quot;&gt;+ GetPrice(admin:adm): price&lt;/p&gt;" style="verticalAlign=top;align=left;overflow=fill;fontSize=12;fontFamily=Helvetica;html=1;" parent="1" vertex="1">
          <mxGeometry x="765" y="550" width="180" height="90" as="geometry" />
        </mxCell>
        <mxCell id="2zfGwBT45NxF4zeaI-SW-83" value="" style="endArrow=open;endFill=1;endSize=12;html=1;rounded=0;fontSize=12;exitX=0;exitY=0.3333333333333333;exitDx=0;exitDy=0;exitPerimeter=0;" parent="1" source="2zfGwBT45NxF4zeaI-SW-1" edge="1">
          <mxGeometry width="160" relative="1" as="geometry">
            <mxPoint x="620" y="210" as="sourcePoint" />
            <mxPoint x="590" y="150" as="targetPoint" />
          </mxGeometry>
        </mxCell>
        <mxCell id="2zfGwBT45NxF4zeaI-SW-84" value="" style="endArrow=open;endFill=1;endSize=12;html=1;rounded=0;fontSize=12;exitX=1;exitY=0.3333333333333333;exitDx=0;exitDy=0;exitPerimeter=0;" parent="1" source="2zfGwBT45NxF4zeaI-SW-57" edge="1">
          <mxGeometry width="160" relative="1" as="geometry">
            <mxPoint x="620" y="210" as="sourcePoint" />
            <mxPoint x="590" y="150" as="targetPoint" />
          </mxGeometry>
        </mxCell>
        <mxCell id="2zfGwBT45NxF4zeaI-SW-85" value="" style="endArrow=open;endFill=1;endSize=12;html=1;rounded=0;fontSize=12;entryX=0.5;entryY=1;entryDx=0;entryDy=0;exitX=0.5;exitY=0;exitDx=0;exitDy=0;" parent="1" source="2zfGwBT45NxF4zeaI-SW-81" target="2zfGwBT45NxF4zeaI-SW-82" edge="1">
          <mxGeometry width="160" relative="1" as="geometry">
            <mxPoint x="657.5" y="745" as="sourcePoint" />
            <mxPoint x="817.5" y="745" as="targetPoint" />
          </mxGeometry>
        </mxCell>
        <mxCell id="2zfGwBT45NxF4zeaI-SW-98" value="" style="html=1;points=[];perimeter=orthogonalPerimeter;fontSize=12;noLabel=1;labelBackgroundColor=default;fillColor=#ffe6cc;strokeColor=#d79b00;" parent="1" vertex="1">
          <mxGeometry x="-640" y="480" width="10" height="160" as="geometry" />
        </mxCell>
        <mxCell id="2zfGwBT45NxF4zeaI-SW-99" value="" style="html=1;points=[];perimeter=orthogonalPerimeter;fontSize=12;fillColor=#dae8fc;strokeColor=#6c8ebf;" parent="1" vertex="1">
          <mxGeometry x="-485" y="480" width="10" height="90" as="geometry" />
        </mxCell>
        <mxCell id="2zfGwBT45NxF4zeaI-SW-101" value="Заявка" style="html=1;verticalAlign=bottom;endArrow=block;rounded=0;fontSize=12;exitX=0.758;exitY=0.004;exitDx=0;exitDy=0;exitPerimeter=0;entryX=0.811;entryY=-0.003;entryDx=0;entryDy=0;entryPerimeter=0;" parent="1" source="2zfGwBT45NxF4zeaI-SW-98" target="2zfGwBT45NxF4zeaI-SW-99" edge="1">
          <mxGeometry width="80" relative="1" as="geometry">
            <mxPoint x="-610" y="470" as="sourcePoint" />
            <mxPoint x="-510" y="480" as="targetPoint" />
          </mxGeometry>
        </mxCell>
        <mxCell id="2zfGwBT45NxF4zeaI-SW-104" value="Клиент" style="rounded=1;whiteSpace=wrap;html=1;fontSize=12;" parent="1" vertex="1">
          <mxGeometry x="-670" y="420" width="70" height="20" as="geometry" />
        </mxCell>
        <mxCell id="2zfGwBT45NxF4zeaI-SW-105" value="" style="endArrow=none;dashed=1;html=1;rounded=0;fontSize=12;entryX=0.5;entryY=1;entryDx=0;entryDy=0;" parent="1" target="2zfGwBT45NxF4zeaI-SW-104" edge="1">
          <mxGeometry width="50" height="50" relative="1" as="geometry">
            <mxPoint x="-635" y="480" as="sourcePoint" />
            <mxPoint x="-260" y="560" as="targetPoint" />
          </mxGeometry>
        </mxCell>
        <mxCell id="2zfGwBT45NxF4zeaI-SW-106" value="Администратор" style="rounded=1;whiteSpace=wrap;html=1;fontSize=12;" parent="1" vertex="1">
          <mxGeometry x="-525" y="420" width="90" height="20" as="geometry" />
        </mxCell>
        <mxCell id="2zfGwBT45NxF4zeaI-SW-107" value="" style="endArrow=none;dashed=1;html=1;rounded=0;fontSize=12;entryX=0.5;entryY=1;entryDx=0;entryDy=0;" parent="1" target="2zfGwBT45NxF4zeaI-SW-106" edge="1">
          <mxGeometry width="50" height="50" relative="1" as="geometry">
            <mxPoint x="-480" y="480" as="sourcePoint" />
            <mxPoint x="-390" y="420" as="targetPoint" />
          </mxGeometry>
        </mxCell>
        <mxCell id="2zfGwBT45NxF4zeaI-SW-108" value="" style="html=1;points=[];perimeter=orthogonalPerimeter;fontSize=12;fillColor=#d5e8d4;strokeColor=#82b366;" parent="1" vertex="1">
          <mxGeometry x="-330" y="490" width="10" height="110" as="geometry" />
        </mxCell>
        <mxCell id="2zfGwBT45NxF4zeaI-SW-109" value="наиболее подходящий из&lt;br style=&quot;font-size: 10px;&quot;&gt;доступных Номеров" style="html=1;verticalAlign=bottom;endArrow=block;entryX=0;entryY=0;rounded=0;fontSize=10;exitX=0.982;exitY=0.123;exitDx=0;exitDy=0;exitPerimeter=0;" parent="1" source="2zfGwBT45NxF4zeaI-SW-99" target="2zfGwBT45NxF4zeaI-SW-108" edge="1">
          <mxGeometry relative="1" as="geometry">
            <mxPoint x="-400" y="480" as="sourcePoint" />
          </mxGeometry>
        </mxCell>
        <mxCell id="2zfGwBT45NxF4zeaI-SW-110" value="счет" style="html=1;verticalAlign=bottom;endArrow=open;dashed=1;endSize=8;exitX=0;exitY=0.95;rounded=0;fontSize=12;entryX=1.2;entryY=0.727;entryDx=0;entryDy=0;entryPerimeter=0;" parent="1" source="2zfGwBT45NxF4zeaI-SW-108" target="2zfGwBT45NxF4zeaI-SW-98" edge="1">
          <mxGeometry relative="1" as="geometry">
            <mxPoint x="-400" y="566" as="targetPoint" />
          </mxGeometry>
        </mxCell>
        <mxCell id="2zfGwBT45NxF4zeaI-SW-111" value="Сервер" style="rounded=1;whiteSpace=wrap;html=1;fontSize=12;" parent="1" vertex="1">
          <mxGeometry x="-360" y="420" width="70" height="20" as="geometry" />
        </mxCell>
        <mxCell id="2zfGwBT45NxF4zeaI-SW-113" value="" style="endArrow=none;dashed=1;html=1;rounded=0;fontSize=8;entryX=0.5;entryY=1;entryDx=0;entryDy=0;" parent="1" target="2zfGwBT45NxF4zeaI-SW-111" edge="1">
          <mxGeometry width="50" height="50" relative="1" as="geometry">
            <mxPoint x="-325" y="490" as="sourcePoint" />
            <mxPoint x="-310" y="540" as="targetPoint" />
          </mxGeometry>
        </mxCell>
        <mxCell id="2zfGwBT45NxF4zeaI-SW-122" value="" style="endArrow=none;dashed=1;html=1;rounded=0;fontSize=10;fontColor=none;" parent="1" edge="1">
          <mxGeometry width="50" height="50" relative="1" as="geometry">
            <mxPoint x="220" y="760" as="sourcePoint" />
            <mxPoint x="220" y="265" as="targetPoint" />
          </mxGeometry>
        </mxCell>
        <mxCell id="2zfGwBT45NxF4zeaI-SW-123" value="" style="endArrow=none;dashed=1;html=1;rounded=0;fontSize=10;fontColor=none;" parent="1" edge="1">
          <mxGeometry width="50" height="50" relative="1" as="geometry">
            <mxPoint y="760" as="sourcePoint" />
            <mxPoint y="280" as="targetPoint" />
          </mxGeometry>
        </mxCell>
        <mxCell id="2zfGwBT45NxF4zeaI-SW-124" value="Клиент" style="text;strokeColor=none;fillColor=none;html=1;fontSize=24;fontStyle=1;verticalAlign=middle;align=center;labelBackgroundColor=none;fontColor=none;" parent="1" vertex="1">
          <mxGeometry x="-140" y="280" width="100" height="40" as="geometry" />
        </mxCell>
        <mxCell id="2zfGwBT45NxF4zeaI-SW-125" value="Сервер" style="text;html=1;fontSize=24;fontStyle=1;verticalAlign=middle;align=center;labelBackgroundColor=none;" parent="1" vertex="1">
          <mxGeometry x="230" y="280" width="100" height="40" as="geometry" />
        </mxCell>
        <mxCell id="2zfGwBT45NxF4zeaI-SW-126" value="Админ" style="text;strokeColor=none;fillColor=none;html=1;fontSize=24;fontStyle=1;verticalAlign=middle;align=center;labelBackgroundColor=none;fontColor=none;" parent="1" vertex="1">
          <mxGeometry x="30" y="280" width="100" height="40" as="geometry" />
        </mxCell>
        <mxCell id="2zfGwBT45NxF4zeaI-SW-130" value="" style="ellipse;html=1;shape=startState;fillColor=#000000;strokeColor=#ff0000;labelBackgroundColor=none;fontSize=15;fontColor=none;" parent="1" vertex="1">
          <mxGeometry x="-90" y="320" width="30" height="30" as="geometry" />
        </mxCell>
        <mxCell id="2zfGwBT45NxF4zeaI-SW-131" value="" style="edgeStyle=orthogonalEdgeStyle;html=1;verticalAlign=bottom;endArrow=open;endSize=8;strokeColor=#ff0000;rounded=0;labelBackgroundColor=none;fontSize=15;fontColor=none;" parent="1" source="2zfGwBT45NxF4zeaI-SW-130" edge="1">
          <mxGeometry relative="1" as="geometry">
            <mxPoint x="-75" y="380" as="targetPoint" />
          </mxGeometry>
        </mxCell>
        <mxCell id="2zfGwBT45NxF4zeaI-SW-138" style="edgeStyle=orthogonalEdgeStyle;rounded=0;orthogonalLoop=1;jettySize=auto;html=1;exitX=0.5;exitY=1;exitDx=0;exitDy=0;entryX=0.5;entryY=0;entryDx=0;entryDy=0;labelBackgroundColor=none;fontSize=15;fontColor=none;" parent="1" source="2zfGwBT45NxF4zeaI-SW-132" target="2zfGwBT45NxF4zeaI-SW-137" edge="1">
          <mxGeometry relative="1" as="geometry" />
        </mxCell>
        <mxCell id="2zfGwBT45NxF4zeaI-SW-132" value="&lt;span style=&quot;font-size: 12px;&quot;&gt;заполнить заявку&lt;/span&gt;" style="html=1;labelBackgroundColor=none;fontSize=15;fontColor=none;" parent="1" vertex="1">
          <mxGeometry x="-130" y="380" width="110" height="50" as="geometry" />
        </mxCell>
        <mxCell id="2zfGwBT45NxF4zeaI-SW-140" style="edgeStyle=orthogonalEdgeStyle;rounded=0;orthogonalLoop=1;jettySize=auto;html=1;exitX=0;exitY=0.5;exitDx=0;exitDy=0;entryX=0.5;entryY=0;entryDx=0;entryDy=0;labelBackgroundColor=none;fontSize=15;fontColor=none;" parent="1" source="2zfGwBT45NxF4zeaI-SW-137" target="2zfGwBT45NxF4zeaI-SW-139" edge="1">
          <mxGeometry relative="1" as="geometry" />
        </mxCell>
        <mxCell id="2zfGwBT45NxF4zeaI-SW-143" style="edgeStyle=orthogonalEdgeStyle;rounded=0;orthogonalLoop=1;jettySize=auto;html=1;exitX=1;exitY=0.5;exitDx=0;exitDy=0;entryX=0;entryY=0.5;entryDx=0;entryDy=0;labelBackgroundColor=none;fontSize=15;fontColor=none;" parent="1" source="2zfGwBT45NxF4zeaI-SW-137" target="2zfGwBT45NxF4zeaI-SW-142" edge="1">
          <mxGeometry relative="1" as="geometry" />
        </mxCell>
        <mxCell id="2zfGwBT45NxF4zeaI-SW-137" value="заполнена?" style="shape=rhombus;perimeter=rhombusPerimeter;whiteSpace=wrap;html=1;align=center;labelBackgroundColor=none;fontSize=15;fontColor=none;" parent="1" vertex="1">
          <mxGeometry x="-135" y="460" width="120" height="60" as="geometry" />
        </mxCell>
        <mxCell id="2zfGwBT45NxF4zeaI-SW-139" value="" style="ellipse;html=1;shape=endState;fillColor=#000000;strokeColor=#ff0000;labelBackgroundColor=none;fontSize=15;fontColor=none;" parent="1" vertex="1">
          <mxGeometry x="-170" y="560" width="30" height="30" as="geometry" />
        </mxCell>
        <mxCell id="2zfGwBT45NxF4zeaI-SW-148" style="edgeStyle=orthogonalEdgeStyle;rounded=0;orthogonalLoop=1;jettySize=auto;html=1;exitX=0.5;exitY=1;exitDx=0;exitDy=0;entryX=0.5;entryY=0;entryDx=0;entryDy=0;labelBackgroundColor=none;fontSize=15;fontColor=none;" parent="1" source="2zfGwBT45NxF4zeaI-SW-142" target="2zfGwBT45NxF4zeaI-SW-147" edge="1">
          <mxGeometry relative="1" as="geometry" />
        </mxCell>
        <mxCell id="2zfGwBT45NxF4zeaI-SW-142" value="&lt;span style=&quot;font-size: 12px;&quot;&gt;просмотреть заявку&lt;/span&gt;" style="html=1;labelBackgroundColor=none;fontSize=15;fontColor=none;" parent="1" vertex="1">
          <mxGeometry x="30" y="465" width="110" height="50" as="geometry" />
        </mxCell>
        <mxCell id="2zfGwBT45NxF4zeaI-SW-150" style="edgeStyle=orthogonalEdgeStyle;rounded=0;orthogonalLoop=1;jettySize=auto;html=1;exitX=0;exitY=0.5;exitDx=0;exitDy=0;entryX=0.5;entryY=0;entryDx=0;entryDy=0;labelBackgroundColor=none;fontSize=15;fontColor=none;" parent="1" source="2zfGwBT45NxF4zeaI-SW-147" target="2zfGwBT45NxF4zeaI-SW-149" edge="1">
          <mxGeometry relative="1" as="geometry" />
        </mxCell>
        <mxCell id="2zfGwBT45NxF4zeaI-SW-152" style="edgeStyle=orthogonalEdgeStyle;rounded=0;orthogonalLoop=1;jettySize=auto;html=1;exitX=1;exitY=0.5;exitDx=0;exitDy=0;entryX=0.5;entryY=0;entryDx=0;entryDy=0;labelBackgroundColor=none;fontSize=15;fontColor=none;" parent="1" source="2zfGwBT45NxF4zeaI-SW-147" target="2zfGwBT45NxF4zeaI-SW-151" edge="1">
          <mxGeometry relative="1" as="geometry" />
        </mxCell>
        <mxCell id="2zfGwBT45NxF4zeaI-SW-147" value="есть свободные&lt;br style=&quot;font-size: 11px;&quot;&gt;номера?" style="shape=rhombus;perimeter=rhombusPerimeter;whiteSpace=wrap;html=1;align=center;labelBackgroundColor=none;fontSize=11;fontColor=none;" parent="1" vertex="1">
          <mxGeometry x="25" y="540" width="120" height="60" as="geometry" />
        </mxCell>
        <mxCell id="2zfGwBT45NxF4zeaI-SW-149" value="" style="ellipse;html=1;shape=endState;fillColor=#000000;strokeColor=#ff0000;labelBackgroundColor=none;fontSize=15;fontColor=none;" parent="1" vertex="1">
          <mxGeometry x="10" y="630" width="30" height="30" as="geometry" />
        </mxCell>
        <mxCell id="2zfGwBT45NxF4zeaI-SW-154" style="edgeStyle=orthogonalEdgeStyle;rounded=0;orthogonalLoop=1;jettySize=auto;html=1;exitX=1;exitY=0.5;exitDx=0;exitDy=0;entryX=0;entryY=0.5;entryDx=0;entryDy=0;labelBackgroundColor=none;fontSize=11;fontColor=none;" parent="1" source="2zfGwBT45NxF4zeaI-SW-151" target="2zfGwBT45NxF4zeaI-SW-153" edge="1">
          <mxGeometry relative="1" as="geometry" />
        </mxCell>
        <mxCell id="2zfGwBT45NxF4zeaI-SW-151" value="&lt;span style=&quot;font-size: 12px;&quot;&gt;выделить номер&lt;/span&gt;" style="html=1;labelBackgroundColor=none;fontSize=15;fontColor=none;" parent="1" vertex="1">
          <mxGeometry x="100" y="600" width="100" height="50" as="geometry" />
        </mxCell>
        <mxCell id="2zfGwBT45NxF4zeaI-SW-156" style="edgeStyle=orthogonalEdgeStyle;rounded=0;orthogonalLoop=1;jettySize=auto;html=1;exitX=0.5;exitY=1;exitDx=0;exitDy=0;entryX=0.5;entryY=0;entryDx=0;entryDy=0;labelBackgroundColor=none;fontSize=11;fontColor=none;" parent="1" source="2zfGwBT45NxF4zeaI-SW-153" target="2zfGwBT45NxF4zeaI-SW-155" edge="1">
          <mxGeometry relative="1" as="geometry" />
        </mxCell>
        <mxCell id="2zfGwBT45NxF4zeaI-SW-153" value="&lt;span style=&quot;font-size: 12px;&quot;&gt;выставить счет&lt;/span&gt;" style="html=1;labelBackgroundColor=none;fontSize=15;fontColor=none;" parent="1" vertex="1">
          <mxGeometry x="240" y="600" width="100" height="50" as="geometry" />
        </mxCell>
        <mxCell id="2zfGwBT45NxF4zeaI-SW-155" value="" style="ellipse;html=1;shape=endState;fillColor=#000000;strokeColor=#ff0000;labelBackgroundColor=none;fontSize=11;fontColor=none;" parent="1" vertex="1">
          <mxGeometry x="275" y="675" width="30" height="30" as="geometry" />
        </mxCell>
        <mxCell id="2zfGwBT45NxF4zeaI-SW-158" value="нет" style="text;html=1;align=center;verticalAlign=middle;resizable=0;points=[];autosize=1;strokeColor=none;fillColor=none;fontSize=11;fontColor=none;" parent="1" vertex="1">
          <mxGeometry x="-170" y="465" width="40" height="30" as="geometry" />
        </mxCell>
        <mxCell id="2zfGwBT45NxF4zeaI-SW-159" value="да" style="text;html=1;align=center;verticalAlign=middle;resizable=0;points=[];autosize=1;strokeColor=none;fillColor=none;fontSize=11;fontColor=none;" parent="1" vertex="1">
          <mxGeometry x="-30" y="465" width="40" height="30" as="geometry" />
        </mxCell>
        <mxCell id="2zfGwBT45NxF4zeaI-SW-160" value="нет" style="text;html=1;align=center;verticalAlign=middle;resizable=0;points=[];autosize=1;strokeColor=none;fillColor=none;fontSize=11;fontColor=none;" parent="1" vertex="1">
          <mxGeometry y="545" width="40" height="30" as="geometry" />
        </mxCell>
        <mxCell id="2zfGwBT45NxF4zeaI-SW-161" value="да" style="text;html=1;align=center;verticalAlign=middle;resizable=0;points=[];autosize=1;strokeColor=none;fillColor=none;fontSize=11;fontColor=none;" parent="1" vertex="1">
          <mxGeometry x="140" y="560" width="40" height="30" as="geometry" />
        </mxCell>
        <mxCell id="2zfGwBT45NxF4zeaI-SW-162" value="Клиент" style="shape=module;align=left;spacingLeft=20;align=center;verticalAlign=top;labelBackgroundColor=none;fontSize=11;fontColor=none;" parent="1" vertex="1">
          <mxGeometry x="880" y="390" width="100" height="50" as="geometry" />
        </mxCell>
        <mxCell id="2zfGwBT45NxF4zeaI-SW-164" value="заказ" style="shape=module;align=left;spacingLeft=20;align=center;verticalAlign=top;labelBackgroundColor=none;fontSize=11;fontColor=none;" parent="1" vertex="1">
          <mxGeometry x="1040" y="390" width="100" height="50" as="geometry" />
        </mxCell>
        <mxCell id="2zfGwBT45NxF4zeaI-SW-165" value="админ" style="shape=module;align=left;spacingLeft=20;align=center;verticalAlign=top;labelBackgroundColor=none;fontSize=11;fontColor=none;" parent="1" vertex="1">
          <mxGeometry x="1191" y="390" width="100" height="50" as="geometry" />
        </mxCell>
        <mxCell id="2zfGwBT45NxF4zeaI-SW-166" value="server&#xa;" style="shape=module;align=left;spacingLeft=20;align=center;verticalAlign=top;labelBackgroundColor=none;fontSize=11;fontColor=none;" parent="1" vertex="1">
          <mxGeometry x="1350" y="390" width="100" height="50" as="geometry" />
        </mxCell>
        <mxCell id="2zfGwBT45NxF4zeaI-SW-167" value="" style="endArrow=none;html=1;rounded=0;labelBackgroundColor=none;fontSize=11;fontColor=none;exitX=1;exitY=0.5;exitDx=0;exitDy=0;entryX=0.084;entryY=0.498;entryDx=0;entryDy=0;entryPerimeter=0;" parent="1" source="2zfGwBT45NxF4zeaI-SW-162" target="2zfGwBT45NxF4zeaI-SW-164" edge="1">
          <mxGeometry width="50" height="50" relative="1" as="geometry">
            <mxPoint x="1020" y="530" as="sourcePoint" />
            <mxPoint x="1070" y="480" as="targetPoint" />
          </mxGeometry>
        </mxCell>
        <mxCell id="2zfGwBT45NxF4zeaI-SW-169" value="" style="endArrow=none;html=1;rounded=0;labelBackgroundColor=none;fontSize=11;fontColor=none;exitX=1;exitY=0.5;exitDx=0;exitDy=0;entryX=0.071;entryY=0.483;entryDx=0;entryDy=0;entryPerimeter=0;" parent="1" source="2zfGwBT45NxF4zeaI-SW-164" target="2zfGwBT45NxF4zeaI-SW-165" edge="1">
          <mxGeometry width="50" height="50" relative="1" as="geometry">
            <mxPoint x="1000" y="435" as="sourcePoint" />
            <mxPoint x="1068.4" y="434.9" as="targetPoint" />
          </mxGeometry>
        </mxCell>
        <mxCell id="2zfGwBT45NxF4zeaI-SW-171" value="" style="endArrow=none;html=1;rounded=0;labelBackgroundColor=none;fontSize=11;fontColor=none;exitX=1;exitY=0.5;exitDx=0;exitDy=0;entryX=0.1;entryY=0.473;entryDx=0;entryDy=0;entryPerimeter=0;" parent="1" source="2zfGwBT45NxF4zeaI-SW-165" target="2zfGwBT45NxF4zeaI-SW-166" edge="1">
          <mxGeometry width="50" height="50" relative="1" as="geometry">
            <mxPoint x="1020" y="455" as="sourcePoint" />
            <mxPoint x="1088.4" y="454.9" as="targetPoint" />
          </mxGeometry>
        </mxCell>
        <mxCell id="2zfGwBT45NxF4zeaI-SW-175" value="количество мест в &lt;br&gt;номере;&lt;br style=&quot;font-size: 8px;&quot;&gt;&amp;nbsp;класс апартаментов;&lt;br style=&quot;font-size: 8px;&quot;&gt;&amp;nbsp;время пребывания;" style="html=1;labelBackgroundColor=none;fontSize=8;fontColor=none;" parent="1" vertex="1">
          <mxGeometry x="1050" y="430" width="90" height="50" as="geometry" />
        </mxCell>
        <mxCell id="2zfGwBT45NxF4zeaI-SW-176" value="Доступные номера" style="html=1;labelBackgroundColor=none;fontSize=8;fontColor=none;" parent="1" vertex="1">
          <mxGeometry x="1201" y="430" width="90" height="50" as="geometry" />
        </mxCell>
        <mxCell id="2zfGwBT45NxF4zeaI-SW-177" value="Счет за услугу" style="html=1;labelBackgroundColor=none;fontSize=8;fontColor=none;" parent="1" vertex="1">
          <mxGeometry x="1360" y="430" width="90" height="50" as="geometry" />
        </mxCell>
        <mxCell id="2zfGwBT45NxF4zeaI-SW-190" value="Заявка" style="swimlane;fontStyle=1;align=center;verticalAlign=top;childLayout=stackLayout;horizontal=1;startSize=26;horizontalStack=0;resizeParent=1;resizeParentMax=0;resizeLast=0;collapsible=1;marginBottom=0;labelBackgroundColor=none;fontSize=14;fontColor=none;" parent="1" vertex="1">
          <mxGeometry x="445" y="711" width="170" height="114" as="geometry" />
        </mxCell>
        <mxCell id="2zfGwBT45NxF4zeaI-SW-191" value="+колвоМест:int&#xa;+класс:string&#xa;+время:string" style="text;strokeColor=none;fillColor=none;align=left;verticalAlign=top;spacingLeft=4;spacingRight=4;overflow=hidden;rotatable=0;points=[[0,0.5],[1,0.5]];portConstraint=eastwest;labelBackgroundColor=none;fontSize=14;fontColor=none;" parent="2zfGwBT45NxF4zeaI-SW-190" vertex="1">
          <mxGeometry y="26" width="170" height="54" as="geometry" />
        </mxCell>
        <mxCell id="2zfGwBT45NxF4zeaI-SW-192" value="" style="line;strokeWidth=1;fillColor=none;align=left;verticalAlign=middle;spacingTop=-1;spacingLeft=3;spacingRight=3;rotatable=0;labelPosition=right;points=[];portConstraint=eastwest;strokeColor=inherit;labelBackgroundColor=none;fontSize=14;fontColor=none;" parent="2zfGwBT45NxF4zeaI-SW-190" vertex="1">
          <mxGeometry y="80" width="170" height="8" as="geometry" />
        </mxCell>
        <mxCell id="2zfGwBT45NxF4zeaI-SW-193" value="+Add(client:cl)&#xa;" style="text;strokeColor=none;fillColor=none;align=left;verticalAlign=top;spacingLeft=4;spacingRight=4;overflow=hidden;rotatable=0;points=[[0,0.5],[1,0.5]];portConstraint=eastwest;labelBackgroundColor=none;fontSize=14;fontColor=none;" parent="2zfGwBT45NxF4zeaI-SW-190" vertex="1">
          <mxGeometry y="88" width="170" height="26" as="geometry" />
        </mxCell>
        <mxCell id="2zfGwBT45NxF4zeaI-SW-194" value="" style="endArrow=none;html=1;rounded=0;labelBackgroundColor=none;fontSize=14;fontColor=none;exitX=0.5;exitY=0;exitDx=0;exitDy=0;entryX=0.502;entryY=1.046;entryDx=0;entryDy=0;entryPerimeter=0;" parent="1" source="2zfGwBT45NxF4zeaI-SW-203" target="2zfGwBT45NxF4zeaI-SW-193" edge="1">
          <mxGeometry width="50" height="50" relative="1" as="geometry">
            <mxPoint x="530" y="900" as="sourcePoint" />
            <mxPoint x="530" y="830" as="targetPoint" />
          </mxGeometry>
        </mxCell>
        <mxCell id="2zfGwBT45NxF4zeaI-SW-195" value="1" style="text;html=1;align=center;verticalAlign=middle;resizable=0;points=[];autosize=1;strokeColor=none;fillColor=none;fontSize=14;fontColor=none;" parent="1" vertex="1">
          <mxGeometry x="525" y="870" width="30" height="30" as="geometry" />
        </mxCell>
        <mxCell id="2zfGwBT45NxF4zeaI-SW-196" value="*" style="text;html=1;align=center;verticalAlign=middle;resizable=0;points=[];autosize=1;strokeColor=none;fillColor=none;fontSize=14;fontColor=none;" parent="1" vertex="1">
          <mxGeometry x="520" y="825" width="30" height="30" as="geometry" />
        </mxCell>
        <mxCell id="2zfGwBT45NxF4zeaI-SW-203" value="client" style="swimlane;fontStyle=0;childLayout=stackLayout;horizontal=1;startSize=26;fillColor=none;horizontalStack=0;resizeParent=1;resizeParentMax=0;resizeLast=0;collapsible=1;marginBottom=0;labelBackgroundColor=none;fontSize=14;fontColor=none;" parent="1" vertex="1">
          <mxGeometry x="460" y="900" width="140" height="52" as="geometry" />
        </mxCell>
        <mxCell id="2zfGwBT45NxF4zeaI-SW-204" value="+ name:string&#xa;" style="text;strokeColor=none;fillColor=none;align=left;verticalAlign=top;spacingLeft=4;spacingRight=4;overflow=hidden;rotatable=0;points=[[0,0.5],[1,0.5]];portConstraint=eastwest;labelBackgroundColor=none;fontSize=14;fontColor=none;" parent="2zfGwBT45NxF4zeaI-SW-203" vertex="1">
          <mxGeometry y="26" width="140" height="26" as="geometry" />
        </mxCell>
        <mxCell id="2zfGwBT45NxF4zeaI-SW-207" value="" style="endArrow=none;html=1;rounded=0;labelBackgroundColor=none;fontSize=14;fontColor=none;entryX=0;entryY=0.5;entryDx=0;entryDy=0;exitX=1.006;exitY=0.34;exitDx=0;exitDy=0;exitPerimeter=0;" parent="1" source="2zfGwBT45NxF4zeaI-SW-191" target="2zfGwBT45NxF4zeaI-SW-81" edge="1">
          <mxGeometry relative="1" as="geometry">
            <mxPoint x="590" y="760" as="sourcePoint" />
            <mxPoint x="750" y="760" as="targetPoint" />
          </mxGeometry>
        </mxCell>
        <mxCell id="2zfGwBT45NxF4zeaI-SW-208" value="1" style="text;html=1;align=center;verticalAlign=middle;resizable=0;points=[];autosize=1;strokeColor=none;fillColor=none;fontSize=14;fontColor=none;" parent="1" vertex="1">
          <mxGeometry x="745" y="735" width="30" height="30" as="geometry" />
        </mxCell>
        <mxCell id="2zfGwBT45NxF4zeaI-SW-209" value="*" style="text;html=1;align=center;verticalAlign=middle;resizable=0;points=[];autosize=1;strokeColor=none;fillColor=none;fontSize=14;fontColor=none;" parent="1" vertex="1">
          <mxGeometry x="605" y="735" width="30" height="30" as="geometry" />
        </mxCell>
      </root>
    </mxGraphModel>
  </diagram>
</mxfile>
